<?xml version="1.0" standalone="no"?>
<!DOCTYPE svg PUBLIC "-//W3C//DTD SVG 20010904//EN"
 "http://www.w3.org/TR/2001/REC-SVG-20010904/DTD/svg10.dtd">
<svg version="1.0" xmlns="http://www.w3.org/2000/svg"
 width="980.000000pt" height="968.000000pt" viewBox="0 0 980.000000 968.000000"
 preserveAspectRatio="xMidYMid meet">

<g transform="translate(0.000000,968.000000) scale(0.100000,-0.100000)"
fill="#000000" stroke="none">
<path d="M4785 9650 c-66 -26 -131 -89 -164 -159 l-26 -56 0 -670 c0 -663 0
-670 21 -716 31 -67 87 -124 152 -156 118 -58 269 -29 357 69 21 22 47 61 59
87 21 46 21 53 21 716 l0 670 -27 57 c-69 148 -240 217 -393 158z"/>
<path d="M1721 8139 c-65 -26 -134 -92 -164 -157 -16 -35 -22 -67 -22 -122 0
-125 4 -131 382 -505 383 -379 408 -398 532 -398 95 0 184 42 241 114 49 62
64 108 64 190 0 121 -12 136 -395 513 -244 240 -354 341 -387 357 -69 32 -180
36 -251 8z"/>
<path d="M7880 8151 c-71 -23 -129 -73 -442 -380 -380 -374 -392 -389 -392
-510 0 -82 15 -128 64 -190 57 -72 146 -114 241 -114 124 0 149 19 532 398
249 246 339 342 356 377 93 196 -45 418 -264 425 -38 1 -81 -1 -95 -6z"/>
<path d="M4660 7550 c-483 -46 -905 -196 -1310 -465 -155 -103 -251 -182 -403
-333 -993 -981 -1074 -2537 -189 -3618 712 -870 1887 -1221 2967 -888 295 91
591 243 853 439 140 104 425 389 528 527 300 403 480 855 535 1338 15 135 15
445 0 580 -98 864 -603 1626 -1371 2067 -300 173 -652 291 -1005 338 -143 19
-473 27 -605 15z m517 -615 c817 -106 1501 -666 1758 -1439 75 -226 105 -411
105 -656 0 -245 -30 -430 -105 -656 -125 -377 -347 -700 -660 -962 -520 -436
-1244 -597 -1915 -426 -702 179 -1268 705 -1495 1388 -76 226 -105 411 -105
658 0 469 148 903 439 1283 66 86 222 246 324 331 301 253 693 425 1082 477
148 20 425 21 572 2z"/>
<path d="M194 5120 c-28 -11 -69 -36 -92 -55 -97 -84 -127 -239 -69 -357 34
-69 91 -121 165 -148 52 -20 72 -20 735 -18 l682 3 49 24 c147 72 211 247 144
392 -31 68 -80 118 -144 150 l-49 24 -685 2 c-660 2 -687 1 -736 -17z"/>
<path d="M8167 5125 c-253 -93 -270 -438 -28 -557 l46 -23 682 -3 c663 -2 683
-2 735 18 74 27 131 79 165 148 23 47 28 70 28 132 0 62 -5 85 -28 132 -34 69
-91 121 -164 148 -52 19 -76 20 -726 19 -552 0 -679 -3 -710 -14z"/>
<path d="M2397 2719 c-26 -4 -70 -20 -97 -36 -28 -16 -187 -164 -384 -358
-379 -373 -380 -375 -381 -505 0 -62 5 -85 28 -132 55 -111 165 -174 292 -166
118 8 134 20 507 387 380 374 392 390 392 510 0 82 -15 128 -64 190 -28 35
-58 58 -102 79 -70 34 -120 42 -191 31z"/>
<path d="M7297 2719 c-192 -30 -308 -250 -222 -424 21 -44 90 -117 366 -387
229 -225 355 -341 387 -357 32 -16 70 -26 117 -29 124 -7 230 51 290 159 26
47 30 64 30 134 0 137 -4 142 -395 524 -275 269 -350 336 -392 355 -62 28
-115 35 -181 25z"/>
<path d="M4803 1802 c-90 -32 -165 -105 -195 -190 -10 -29 -13 -181 -13 -702
l0 -665 26 -56 c112 -239 446 -239 557 -1 l27 57 0 670 0 670 -28 57 c-69 140
-233 210 -374 160z"/>
</g>
</svg>
